<svg width="22" height="22" viewBox="0 0 22 22" fill="none" xmlns="http://www.w3.org/2000/svg">
<path d="M22 10.989C22 4.9225 17.072 0 11 0C4.928 0 0 4.9225 0 10.989C0 14.3303 1.518 17.3415 3.894 19.3627C3.916 19.3847 3.938 19.3847 3.938 19.4067C4.136 19.5607 4.334 19.7147 4.554 19.8687C4.664 19.9347 4.752 20.0214 4.862 20.1094C6.68058 21.3403 8.82598 21.9988 11.022 22C13.218 21.9988 15.3634 21.3403 17.182 20.1094C17.292 20.0434 17.38 19.9568 17.49 19.8894C17.688 19.7368 17.908 19.5828 18.106 19.4288C18.128 19.4068 18.15 19.4068 18.15 19.3848C20.482 17.3401 22 14.3303 22 10.989ZM11 20.6154C8.932 20.6154 7.04 19.9554 5.478 18.8568C5.5 18.6808 5.544 18.5061 5.588 18.3301C5.71952 17.8533 5.91176 17.3953 6.16 16.9675C6.402 16.5495 6.688 16.1755 7.04 15.8455C7.37 15.5155 7.766 15.2089 8.162 14.9669C8.58 14.7249 9.02 14.5489 9.504 14.4169C9.99192 14.2862 10.4949 14.2201 11 14.2203C12.4998 14.2089 13.9446 14.7843 15.026 15.8235C15.532 16.3295 15.928 16.923 16.214 17.6041C16.368 18.0001 16.478 18.4177 16.544 18.8568C14.9204 19.9982 12.9847 20.6122 11 20.6154ZM7.634 10.4404C7.44055 9.99643 7.34309 9.51661 7.348 9.03237C7.348 8.54975 7.436 8.06575 7.634 7.62575C7.832 7.18575 8.096 6.79112 8.426 6.46112C8.756 6.13112 9.152 5.8685 9.592 5.6705C10.032 5.4725 10.516 5.3845 11 5.3845C11.506 5.3845 11.968 5.4725 12.408 5.6705C12.848 5.8685 13.244 6.1325 13.574 6.46112C13.904 6.79112 14.168 7.18713 14.366 7.62575C14.564 8.06575 14.652 8.54975 14.652 9.03237C14.652 9.53837 14.564 10.0004 14.366 10.439C14.176 10.8731 13.9075 11.2684 13.574 11.605C13.2373 11.938 12.842 12.206 12.408 12.3956C11.4987 12.7685 10.4793 12.7685 9.57 12.3956C9.13601 12.206 8.74073 11.938 8.404 11.605C8.07021 11.2731 7.80813 10.8777 7.634 10.4404ZM17.842 17.7361C17.842 17.6921 17.82 17.6701 17.82 17.6261C17.604 16.9377 17.2851 16.2859 16.874 15.6929C16.4626 15.0955 15.9574 14.5685 15.378 14.1322C14.9353 13.7991 14.4554 13.5186 13.948 13.2963C14.1778 13.1425 14.3915 12.9661 14.586 12.7696C14.914 12.4458 15.202 12.0839 15.444 11.6916C15.9329 10.8918 16.1847 9.96965 16.17 9.03237C16.1772 8.33867 16.0424 7.65083 15.774 7.01113C15.5093 6.39465 15.1284 5.83491 14.652 5.3625C14.1752 4.89644 13.6156 4.5234 13.002 4.2625C12.3613 3.99417 11.6725 3.85987 10.978 3.86787C10.2834 3.86031 9.59456 3.99508 8.954 4.26388C8.33366 4.52159 7.77226 4.90287 7.304 5.3845C6.83551 5.85883 6.46213 6.41844 6.204 7.03312C5.93557 7.67283 5.80081 8.36067 5.808 9.05437C5.808 9.53837 5.874 9.99992 6.006 10.439C6.138 10.901 6.314 11.319 6.556 11.7136C6.776 12.1096 7.084 12.4616 7.414 12.7916C7.612 12.9896 7.832 13.1652 8.074 13.3182C7.56428 13.5452 7.08408 13.8333 6.644 14.1763C6.072 14.6163 5.566 15.1429 5.148 15.7149C4.73313 16.3056 4.41388 16.958 4.202 17.6481C4.18 17.6921 4.18 17.7361 4.18 17.7581C2.442 15.9995 1.364 13.6263 1.364 10.989C1.364 5.6925 5.698 1.36263 11 1.36263C16.302 1.36263 20.636 5.6925 20.636 10.989C20.6331 13.5189 19.6286 15.9448 17.842 17.7361Z" fill="#D65E2B"/>
</svg>
