<svg width="22" height="20" viewBox="0 0 22 20" fill="none" xmlns="http://www.w3.org/2000/svg">
<path d="M0.814831 0C0.598724 0 0.391469 0.0877973 0.238658 0.244078C0.085848 0.400358 0 0.61232 0 0.833333C0 1.05435 0.085848 1.26631 0.238658 1.42259C0.391469 1.57887 0.598724 1.66667 0.814831 1.66667H2.09792C2.2945 1.6666 2.48447 1.73922 2.63282 1.87113C2.78116 2.00303 2.87788 2.18534 2.90514 2.38444L4.26754 12.2922C4.34953 12.8891 4.63963 13.4356 5.08442 13.8311C5.52922 14.2266 6.09874 14.4444 6.68813 14.4444H17.9263C18.1424 14.4444 18.3496 14.3566 18.5024 14.2004C18.6553 14.0441 18.7411 13.8321 18.7411 13.6111C18.7411 13.3901 18.6553 13.1781 18.5024 13.0219C18.3496 12.8656 18.1424 12.7778 17.9263 12.7778H6.68813C6.49155 12.7778 6.30158 12.7052 6.15323 12.5733C6.00488 12.4414 5.90816 12.2591 5.8809 12.06L5.75053 11.1122H17.5406C18.0625 11.1125 18.5709 10.9419 18.9912 10.6254C19.4115 10.3089 19.7217 9.86314 19.8764 9.35333L21.9635 2.47778C22.0013 2.35312 22.0099 2.22112 21.9886 2.09243C21.9674 1.96374 21.9169 1.84195 21.8412 1.73687C21.7655 1.63179 21.6668 1.54636 21.5529 1.48747C21.439 1.42857 21.3132 1.39785 21.1856 1.39778H4.29144C4.09012 0.978623 3.77803 0.625516 3.39053 0.378469C3.00304 0.131423 2.55563 0.000314245 2.099 0H0.814831ZM4.64453 3.06444H20.0796L18.3196 8.85889C18.2678 9.02875 18.1643 9.17722 18.0242 9.28258C17.884 9.38794 17.7145 9.44466 17.5406 9.44444H5.52129L4.64453 3.06444ZM6.75549 16.1111C6.25124 16.1111 5.76764 16.316 5.41109 16.6806C5.05453 17.0453 4.85422 17.5399 4.85422 18.0556C4.85422 18.5713 5.05453 19.0658 5.41109 19.4305C5.76764 19.7951 6.25124 20 6.75549 20C7.25974 20 7.74333 19.7951 8.09989 19.4305C8.45645 19.0658 8.65676 18.5713 8.65676 18.0556C8.65676 17.5399 8.45645 17.0453 8.09989 16.6806C7.74333 16.316 7.25974 16.1111 6.75549 16.1111ZM14.1281 18.0556C14.1281 17.5399 14.3284 17.0453 14.6849 16.6806C15.0415 16.316 15.5251 16.1111 16.0293 16.1111C16.5336 16.1111 17.0172 16.316 17.3737 16.6806C17.7303 17.0453 17.9306 17.5399 17.9306 18.0556C17.9306 18.5713 17.7303 19.0658 17.3737 19.4305C17.0172 19.7951 16.5336 20 16.0293 20C15.5251 20 15.0415 19.7951 14.6849 19.4305C14.3284 19.0658 14.1281 18.5713 14.1281 18.0556Z" fill="white"/>
</svg>
